<svg width="760" height="290" viewBox="0 0 760 290" xmlns="http://www.w3.org/2000/svg" role="img" aria-label="Ascending curve representing professional scope growing from 2004 to 2026">
  <rect x="0.5" y="0.5" width="759" height="289" rx="16" fill="#fcfcfb" stroke="rgba(11,11,11,0.10)" stroke-width="1"/>

  <text x="32" y="30" font-family="system-ui, -apple-system, 'Segoe UI', sans-serif" font-size="13" fill="#52514e">Professional scope over time</text>

  <line x1="40" y1="240" x2="720" y2="240" stroke="#c3c2b7" stroke-width="1"/>

  <path d="M40.00,229.5 C70.91,229.5 70.91,208.5 101.82,208.5 C179.09,208.5 179.09,181.2 256.36,181.2 C287.27,181.2 287.27,160.2 318.18,160.2 C333.64,160.2 333.64,143.4 349.09,143.4 C364.55,143.4 364.55,124.5 380.00,124.5 C395.45,124.5 395.45,109.8 410.91,109.8 C426.36,109.8 426.36,93.0 441.82,93.0 C472.73,93.0 472.73,72.0 503.64,72.0 C519.09,72.0 519.09,57.3 534.55,57.3 C627.27,57.3 627.27,36.3 720.00,36.3"
        fill="none" stroke="#2a78d6" stroke-width="2" stroke-linecap="round"/>

  <g fill="#2a78d6" stroke="#fcfcfb" stroke-width="2">
    <circle cx="40.00" cy="229.5" r="4"/>
    <circle cx="101.82" cy="208.5" r="4"/>
    <circle cx="256.36" cy="181.2" r="4"/>
    <circle cx="318.18" cy="160.2" r="4"/>
    <circle cx="349.09" cy="143.4" r="4"/>
    <circle cx="380.00" cy="124.5" r="4"/>
    <circle cx="410.91" cy="109.8" r="4"/>
    <circle cx="441.82" cy="93.0" r="4"/>
    <circle cx="503.64" cy="72.0" r="4"/>
    <circle cx="534.55" cy="57.3" r="4"/>
    <circle cx="720.00" cy="36.3" r="4"/>
  </g>

  <g font-family="system-ui, -apple-system, 'Segoe UI', sans-serif" font-size="10" fill="#898781" text-anchor="middle">
    <line x1="40.00" y1="240" x2="40.00" y2="246" stroke="#898781"/>
    <text x="40.00" y="258">2004</text>
    <line x1="101.82" y1="240" x2="101.82" y2="246" stroke="#898781"/>
    <text x="101.82" y="272">2006</text>
    <line x1="256.36" y1="240" x2="256.36" y2="246" stroke="#898781"/>
    <text x="256.36" y="258">2011</text>
    <line x1="318.18" y1="240" x2="318.18" y2="246" stroke="#898781"/>
    <text x="318.18" y="272">2013</text>
    <line x1="349.09" y1="240" x2="349.09" y2="246" stroke="#898781"/>
    <text x="349.09" y="258">2014</text>
    <line x1="380.00" y1="240" x2="380.00" y2="246" stroke="#898781"/>
    <text x="380.00" y="272">2015</text>
    <line x1="410.91" y1="240" x2="410.91" y2="246" stroke="#898781"/>
    <text x="410.91" y="258">2016</text>
    <line x1="441.82" y1="240" x2="441.82" y2="246" stroke="#898781"/>
    <text x="441.82" y="272">2017</text>
    <line x1="503.64" y1="240" x2="503.64" y2="246" stroke="#898781"/>
    <text x="503.64" y="258">2019</text>
    <line x1="534.55" y1="240" x2="534.55" y2="246" stroke="#898781"/>
    <text x="534.55" y="272">2020</text>
    <line x1="720.00" y1="240" x2="720.00" y2="246" stroke="#898781"/>
    <text x="720.00" y="258">2026</text>
  </g>
</svg>
