<svg width="700" height="560" viewBox="0 0 700 560" xmlns="http://www.w3.org/2000/svg" role="img" aria-label="Hand-drawn-style engineering capabilities radar with a technology emoji at each vertex: Python at Backend and APIs and at Systems integration, Docker at DevOps and CI/CD, SQL/Oracle at Databases, Shell/Fish at Automation and tooling, and React at Frontend. Rust emojis mark its current progress on three axes: near the second ring on Backend and APIs, close to the center on Systems integration, and near the third ring on Automation and tooling — reflecting the shipped dev-cli project">

  <text x="24" y="34" font-family="'Segoe Print', 'Bradley Hand', 'Chalkboard SE', 'Comic Sans MS', cursive" font-size="15" fill="#666666" transform="rotate(-1 24 34)">Progress tracker — technology per capability</text>

  <g fill="none" stroke="#8a8a8a" stroke-width="1.3">
    <path d="M 349.4,262.9 Q 365.7,271.5 381.7,280.6 Q 380.0,299.1 381.3,317.6 Q 365.8,328.2 348.6,336.0 Q 332.4,328.0 317.3,317.8 Q 318.0,299.2 317.4,280.7 Q 334.4,273.5 349.4,262.9"/>
    <path d="M 350.2,227.7 Q 381.8,245.6 413.9,262.5 Q 414.3,298.9 413.5,335.3 Q 381.1,352.9 348.9,370.8 Q 317.0,355.6 287.0,337.0 Q 284.9,300.6 286.6,264.3 Q 317.8,244.8 350.2,227.7"/>
    <path d="M 350.6,191.8 Q 396.2,219.9 442.9,246.3 Q 444.1,299.8 443.4,353.4 Q 396.1,379.2 350.9,408.6 Q 302.5,382.9 255.7,354.2 Q 255.7,300.7 256.5,247.2 Q 304.1,220.5 350.6,191.8"/>
    <path d="M 348.9,156.0 Q 410.3,193.5 473.2,228.5 Q 472.4,300.4 475.6,372.2 Q 413.4,407.9 351.2,443.4 Q 288.9,407.2 225.9,372.3 Q 223.8,300.1 225.5,227.9 Q 287.7,192.7 348.9,156.0"/>
    <path d="M 350.5,121.6 Q 429.5,164.0 506.9,209.3 Q 507.3,299.9 505.5,390.5 Q 427.2,435.6 348.5,479.9 Q 271.6,432.9 193.1,388.8 Q 191.0,299.8 192.7,210.9 Q 271.5,166.0 350.5,121.6"/>
  </g>

  <g fill="none" stroke="#8a8a8a" stroke-width="1.3">
    <path d="M 350.1,300.9 Q 349.6,210.9 350.8,120.9"/>
    <path d="M 349.8,299.7 Q 427.6,254.2 506.8,211.1"/>
    <path d="M 349.2,299.4 Q 427.1,345.0 505.2,390.0"/>
    <path d="M 349.4,298.8 Q 349.4,389.2 349.8,479.7"/>
    <path d="M 351.1,300.5 Q 272.3,344.8 194.2,390.3"/>
    <path d="M 348.9,301.0 Q 272.5,254.9 194.8,210.9"/>
  </g>

  <path d="M 349.7,137.7 Q 420.6,176.5 489.0,219.4 Q 474.2,290.7 457.7,361.6 Q 404.8,395.7 349.1,424.9 Q 303.9,387.0 256.0,352.6 Q 263.9,303.3 270.5,253.9 Q 308.3,194.6 349.7,137.7"
        fill="#2a78d6" fill-opacity="0.16" stroke="#2a78d6" stroke-width="2.4" stroke-linejoin="round"/>

  <g font-family="'Segoe Print', 'Bradley Hand', 'Chalkboard SE', 'Comic Sans MS', cursive" font-size="14" fill="#666666">
    <text x="350.0" y="88.0" text-anchor="middle" transform="rotate(-1 350.0 88.0)">Backend &amp; APIs</text>
    <text x="530.1" y="196.0" text-anchor="start" transform="rotate(1 530.1 196.0)">Systems integration</text>
    <text x="530.1" y="404.0" text-anchor="start" transform="rotate(-1.5 530.1 404.0)">DevOps &amp; CI/CD</text>
    <text x="350.0" y="520.0" text-anchor="middle" transform="rotate(1 350.0 520.0)">Databases</text>
    <text x="169.9" y="404.0" text-anchor="end" transform="rotate(1.5 169.9 404.0)">Automation &amp; tooling</text>
    <text x="169.9" y="196.0" text-anchor="end" transform="rotate(-1 169.9 196.0)">Frontend</text>
  </g>

  <g font-size="22" text-anchor="middle" dominant-baseline="central">
    <text x="350.0" y="138.0">🐍</text>
    <text x="490.3" y="219.0">🐍</text>
    <text x="459.1" y="363.0">🐳</text>
    <text x="350.0" y="426.0">🗄️</text>
    <text x="256.5" y="354.0">🐚</text>
    <text x="272.1" y="255.0">⚛️</text>
    <text x="350.0" y="228.0">🦀</text>
    <text x="365.6" y="291.0" font-size="18">🦀</text>
    <text x="250.1" y="332.4" font-size="19">🦀</text>
  </g>
</svg>
